<?xml version="1.0" encoding="iso-8859-1"?>
<!-- Generator: Adobe Illustrator 19.0.0, SVG Export Plug-In . SVG Version: 6.00 Build 0)  -->
<svg version="1.1" id="Layer_1" xmlns="http://www.w3.org/2000/svg" xmlns:xlink="http://www.w3.org/1999/xlink" x="0px" y="0px"
	 viewBox="0 0 511.999 511.999" style="enable-background:new 0 0 511.999 511.999;" xml:space="preserve">
<g>
	<g>
		<g>
			<path d="M400.132,311.858c-1.451-2.859-4.395-4.659-7.603-4.659h-85.333v-93.867c0-4.719-3.814-8.533-8.533-8.533h-85.333
				c-4.71,0-8.533,3.814-8.533,8.533v93.867h-85.333c-3.209,0-6.144,1.801-7.595,4.659c-1.459,2.867-1.195,6.298,0.7,8.892
				L249.1,508.483c1.604,2.21,4.164,3.516,6.895,3.516c2.739,0,5.291-1.306,6.903-3.516L399.432,320.75
				C401.327,318.156,401.591,314.726,400.132,311.858z"/>
			<path d="M230.399,187.733h51.2c14.114,0,25.6-11.486,25.6-25.6s-11.486-25.6-25.6-25.6h-51.2c-14.114,0-25.6,11.486-25.6,25.6
				S216.285,187.733,230.399,187.733z"/>
			<path d="M230.399,119.467h51.2c14.114,0,25.6-11.486,25.6-25.6s-11.486-25.6-25.6-25.6h-51.2c-14.114,0-25.6,11.486-25.6,25.6
				S216.285,119.467,230.399,119.467z"/>
			<path d="M230.399,51.2h51.2c14.114,0,25.6-11.486,25.6-25.6S295.713,0,281.599,0h-51.2c-14.114,0-25.6,11.486-25.6,25.6
				S216.285,51.2,230.399,51.2z"/>
		</g>
	</g>
</g>
<g>
</g>
<g>
</g>
<g>
</g>
<g>
</g>
<g>
</g>
<g>
</g>
<g>
</g>
<g>
</g>
<g>
</g>
<g>
</g>
<g>
</g>
<g>
</g>
<g>
</g>
<g>
</g>
<g>
</g>
</svg>
